HIERARCHY
ROOT Pelvis
{
	OFFSET 0.000000 0.000000 0.000000
	CHANNELS 6 Xposition Yposition Zposition Xrotation Yrotation Zrotation
	JOINT LeftUpLeg_virtual
	{
		OFFSET 0.000000 0.000000 0.000000
		CHANNELS 3 Xrotation Yrotation Zrotation
		JOINT LeftUpLeg
		{
			OFFSET 18.735201 -5.666702 -4.541200
			CHANNELS 3 Xrotation Yrotation Zrotation
			JOINT LeftLeg
			{
				OFFSET -0.021200 -31.938179 0.493100
				CHANNELS 3 Xrotation Yrotation Zrotation
				JOINT LeftFoot
				{
					OFFSET 0.021200 -31.938179 -4.336299
					CHANNELS 3 Xrotation Yrotation Zrotation
					JOINT LeftToeBase
					{
						OFFSET 0.943001 -26.722000 15.023500
						CHANNELS 3 Xrotation Yrotation Zrotation
						End Site
						{
							OFFSET 0 0 0
						}
					}
				}
			}
		}
	}
	JOINT RightUpLeg_virtual
	{
		OFFSET 0.000000 0.000000 0.000000
		CHANNELS 3 Xrotation Yrotation Zrotation
		JOINT RightUpLeg
		{
			OFFSET -18.735201 -5.666702 -4.541200
			CHANNELS 3 Xrotation Yrotation Zrotation
			JOINT RightLeg
			{
				OFFSET 0.018946 -31.938133 0.493100
				CHANNELS 3 Xrotation Yrotation Zrotation
				JOINT RightFoot
				{
					OFFSET -0.018946 -31.938126 -4.336299
					CHANNELS 3 Xrotation Yrotation Zrotation
					JOINT RightToeBase
					{
						OFFSET -0.943001 -26.722004 15.023500
						CHANNELS 3 Xrotation Yrotation Zrotation
						End Site
						{
							OFFSET 0 0 0
						}
					}
				}
			}
		}
	}
	JOINT Hips_virtual
	{
		OFFSET 0.000000 0.000000 0.000000
		CHANNELS 3 Xrotation Yrotation Zrotation
		JOINT Hips
		{
			OFFSET -0.000000 -0.000000 -0.000000
			CHANNELS 3 Xrotation Yrotation Zrotation
			JOINT Spine
			{
				OFFSET 0.000000 10.199997 -0.299500
				CHANNELS 3 Xrotation Yrotation Zrotation
				JOINT Spine1
				{
					OFFSET 0.000000 11.900002 -1.516600
					CHANNELS 3 Xrotation Yrotation Zrotation
					JOINT Spine2
					{
						OFFSET 0.000000 13.600006 -2.842500
						CHANNELS 3 Xrotation Yrotation Zrotation
						JOINT Neck_virtual
						{
							OFFSET 0.000000 0.000000 0.000000
							CHANNELS 3 Xrotation Yrotation Zrotation
							JOINT Neck
							{
								OFFSET 0.000000 9.624100 -2.890100
								CHANNELS 3 Xrotation Yrotation Zrotation
								JOINT Head
								{
									OFFSET 0.000000 14.068802 -1.351900
									CHANNELS 3 Xrotation Yrotation Zrotation
									End Site
									{
										OFFSET 0 0 0
									}
								}
							}
						}
						JOINT LeftShoulder_virtual
						{
							OFFSET 0.000000 0.000000 0.000000
							CHANNELS 3 Xrotation Yrotation Zrotation
							JOINT LeftShoulder
							{
								OFFSET 15.263000 10.923401 -0.547700
								CHANNELS 3 Xrotation Yrotation Zrotation
								JOINT LeftArm
								{
									OFFSET 25.438599 -2.830597 -13.032500
									CHANNELS 3 Xrotation Yrotation Zrotation
									JOINT LeftForeArm
									{
										OFFSET 29.960503 0.000000 0.000000
										CHANNELS 3 Xrotation Yrotation Zrotation
										JOINT LeftHand
										{
											OFFSET 27.849251 0.000000 0.000000
											CHANNELS 3 Xrotation Yrotation Zrotation
											End Site
											{
												OFFSET 0 0 0
											}
										}
									}
								}
							}
						}
						JOINT RightShoulder_virtual
						{
							OFFSET 0.000000 0.000000 0.000000
							CHANNELS 3 Xrotation Yrotation Zrotation
							JOINT RightShoulder
							{
								OFFSET -15.263000 10.923401 -0.547700
								CHANNELS 3 Xrotation Yrotation Zrotation
								JOINT RightArm
								{
									OFFSET -25.438599 -2.830597 -13.032500
									CHANNELS 3 Xrotation Yrotation Zrotation
									JOINT RightForeArm
									{
										OFFSET -29.960503 0.000000 0.000000
										CHANNELS 3 Xrotation Yrotation Zrotation
										JOINT RightHand
										{
											OFFSET -27.849251 0.000000 0.000000
											CHANNELS 3 Xrotation Yrotation Zrotation
											End Site
											{
												OFFSET 0 0 0
											}
										}
									}
								}
							}
						}
					}
				}
			}
		}
	}
}
MOTION
Frames: 5
Frame Time: 0.03333333
3.042402 81.076126 4.508701 0.000000 0.000000 0.000000 1.652195 -19.648837 -2.376058 -41.137212 6.115838 14.546346 42.468241 9.025146 -4.265365 -11.754466 10.211865 -6.014692 0.000000 0.000000 0.000000 3.814177 -20.819318 -1.780858 -27.580666 -9.365058 -19.808339 57.774835 7.142824 -3.188961 -5.431406 4.739037 13.204858 0.000000 0.000000 0.000000 -1.849944 -14.175812 3.108004 -11.957633 -14.674163 11.096902 2.746408 -3.525153 6.034211 -1.259615 -1.755598 4.356585 0.000000 0.000000 0.000000 -3.113012 0.894926 4.899694 -1.946555 -0.039791 2.336809 0.000000 0.000000 0.000000 -0.620541 0.705900 4.434966 -0.559727 -9.004304 14.044947 -40.914100 -37.782998 -44.858473 -2.176669 -77.408125 -4.105110 0.000000 0.000000 0.000000 -0.443364 -3.481830 3.117038 0.592066 -3.393643 9.292451 22.347211 57.569499 6.171475 88.167620 78.941141 -83.772523 0.000000 0.000000 0.000000 
3.421690 81.381744 4.583244 0.000000 0.000000 0.000000 1.732233 -19.865472 -2.582004 -40.932538 6.166828 14.275213 42.207885 9.194840 -4.222251 -11.805200 10.366863 -5.857437 0.000000 0.000000 0.000000 3.596045 -20.998650 -1.811547 -27.880827 -9.366655 -19.825951 57.399175 6.983545 -3.188421 -5.357325 4.663009 13.022882 0.000000 0.000000 0.000000 -1.649380 -13.783237 3.124368 -11.514355 -14.533085 11.298670 2.762149 -3.318625 5.998903 -1.265995 -1.636384 4.342193 0.000000 0.000000 0.000000 -3.092983 1.013247 4.788523 -1.952973 -0.000098 2.290950 0.000000 0.000000 0.000000 -0.614419 0.849560 4.393360 -0.573520 -8.687266 14.025274 -40.798083 -37.970961 -44.935364 -1.921448 -77.707158 -3.867485 0.000000 0.000000 0.000000 -0.431828 -3.389835 3.101950 0.603120 -3.278686 9.391574 22.548212 57.220825 5.746626 85.577462 78.817426 -81.244711 0.000000 0.000000 0.000000 
3.799541 81.777992 4.643515 0.000000 0.000000 0.000000 1.817452 -19.935244 -2.787351 -40.705363 6.249743 14.006638 41.914344 9.340415 -4.139254 -11.844097 10.490774 -5.664454 0.000000 0.000000 0.000000 3.316597 -21.240099 -1.826477 -28.266509 -9.376651 -19.823869 56.936566 6.820204 -3.243087 -5.316565 4.612766 12.749470 0.000000 0.000000 0.000000 -1.443497 -13.406347 3.134367 -11.071632 -14.460632 11.454254 2.795710 -3.107357 5.956767 -1.258959 -1.514681 4.322263 0.000000 0.000000 0.000000 -3.062627 1.138794 4.684884 -1.954890 0.043552 2.251134 0.000000 0.000000 0.000000 -0.603840 1.001264 4.343670 -0.590006 -8.334314 13.978254 -40.606455 -38.120208 -45.021520 -1.630095 -77.951078 -3.613165 0.000000 0.000000 0.000000 -0.413570 -3.293601 3.076829 0.614704 -3.150354 9.455985 22.673100 56.877796 5.309321 83.173003 78.679312 -78.929994 0.000000 0.000000 0.000000 
4.184427 82.247177 4.674555 0.000000 0.000000 0.000000 1.929875 -19.878943 -2.976749 -40.440437 6.359834 13.754565 41.597327 9.468194 -4.001804 -11.873856 10.580041 -5.409263 0.000000 0.000000 0.000000 2.981844 -21.567962 -1.832819 -28.729842 -9.401604 -19.813023 56.413671 6.662197 -3.346691 -5.305755 4.590919 12.402377 0.000000 0.000000 0.000000 -1.239332 -13.023264 3.136280 -10.652751 -14.410022 11.556427 2.840091 -2.898163 5.914183 -1.242602 -1.394770 4.300468 0.000000 0.000000 0.000000 -3.016958 1.265020 4.591600 -1.951190 0.088651 2.218263 0.000000 0.000000 0.000000 -0.582584 1.158835 4.292591 -0.604376 -7.946356 13.929019 -40.286764 -38.214451 -45.037431 -1.232055 -78.084116 -3.264852 0.000000 0.000000 0.000000 -0.388565 -3.199341 3.044744 0.629553 -3.029912 9.495809 22.681986 56.495042 4.943332 80.767274 78.535182 -76.632373 0.000000 0.000000 0.000000 
4.556284 82.763695 4.699556 0.000000 0.000000 0.000000 2.046854 -19.733294 -3.151624 -40.163654 6.483379 13.517947 41.278074 9.560627 -3.819007 -11.887337 10.621449 -5.111937 0.000000 0.000000 0.000000 2.596953 -21.958662 -1.821208 -29.265759 -9.438306 -19.781464 55.861351 6.527685 -3.482455 -5.318059 4.603002 12.022108 0.000000 0.000000 0.000000 -1.033861 -12.648213 3.131793 -10.238288 -14.397327 11.613648 2.892432 -2.696062 5.869561 -1.219172 -1.279719 4.275922 0.000000 0.000000 0.000000 -2.956424 1.388037 4.507496 -1.941219 0.131258 2.191586 0.000000 0.000000 0.000000 -0.554350 1.309939 4.239617 -0.611847 -7.581554 13.876755 -39.914833 -38.301119 -45.018726 -0.784915 -78.166556 -2.869024 0.000000 0.000000 0.000000 -0.356639 -3.109148 3.004083 0.648574 -2.920434 9.499938 22.630266 56.110335 4.557299 78.471791 78.375628 -74.471738 0.000000 0.000000 0.000000 
